<svg width="154" height="33" fill="none" xmlns="http://www.w3.org/2000/svg">
  <path fill-rule="evenodd" clip-rule="evenodd" d="M15.1823.5521a2 2 0 0 1 1.1882 2.0827l-.919 7.352h8.5344a2 2 0 0 1 1.5365 3.2803l-12 14.4a2 2 0 0 1-3.521-1.5285l.919-7.3519H2.3859a2 2 0 0 1-1.5364-3.2804l12-14.4a2 2 0 0 1 2.3328-.5542ZM6.656 14.7867h6.5299a2 2 0 0 1 1.9846 2.2481l-.3539 2.831 4.8992-5.8791h-6.5299a1.9998 1.9998 0 0 1-1.9845-2.2481l.3538-2.831-4.8992 5.8791Z" fill="#0147FF"/>
  <path d="M153.08 9.5886v3.2969h-8.625V9.5886h8.625Zm-6.641-4.1718h4.359v15.9218c0 .4688.047.8281.141 1.0781.094.25.234.4271.422.5313.198.0937.458.1406.781.1406.219 0 .422-.0104.61-.0312.187-.0313.328-.0625.421-.0938v3.4219c-.343.1354-.708.2396-1.093.3125-.375.0729-.823.1094-1.344.1094-.875 0-1.635-.1667-2.281-.5-.636-.3334-1.13-.8646-1.485-1.5938-.354-.7396-.531-1.7083-.531-2.9062V5.4167Zm-17.172 13.2031v-1.1407c0-1.3229.156-2.4947.469-3.5156.323-1.0208.781-1.875 1.375-2.5625.594-.6979 1.307-1.2239 2.141-1.5781.843-.3646 1.786-.5469 2.828-.5469 1.052 0 1.995.1823 2.828.5469.844.3542 1.562.8802 2.156 1.5781.604.6875 1.068 1.5417 1.391 2.5625.323 1.0209.484 2.1927.484 3.5156v1.1407c0 1.3125-.161 2.4791-.484 3.5-.323 1.0208-.787 1.8802-1.391 2.5781-.594.6979-1.307 1.224-2.141 1.5781-.833.3542-1.77.5313-2.812.5313-1.042 0-1.984-.1771-2.828-.5313-.833-.3541-1.552-.8802-2.156-1.5781-.605-.6979-1.068-1.5573-1.391-2.5781-.313-1.0209-.469-2.1875-.469-3.5Zm4.375-1.1407v1.1407c0 .7812.052 1.4583.156 2.0312.115.5729.277 1.0469.485 1.4219.219.375.479.651.781.8281.302.1771.651.2656 1.047.2656.396 0 .75-.0885 1.062-.2656.313-.1771.568-.4531.766-.8281.208-.375.359-.849.453-1.4219.104-.5729.156-1.25.156-2.0312v-1.1407c0-.7604-.057-1.427-.171-2-.115-.5833-.276-1.0572-.485-1.4218-.208-.375-.469-.6563-.781-.8438-.302-.1979-.646-.2969-1.031-.2969-.386 0-.729.099-1.032.2969-.291.1875-.546.4688-.765.8438-.208.3646-.37.8385-.485 1.4218-.104.573-.156 1.2396-.156 2Zm-15.344-4.6406v20.1563h-4.359V9.5886h4.031l.328 3.25Zm8.782 4.625v1.125c0 1.3229-.115 2.4948-.344 3.5156-.229 1.0105-.573 1.8698-1.031 2.5782-.448.6979-1.011 1.2291-1.688 1.5937-.677.3542-1.469.5313-2.375.5313-.844 0-1.573-.1979-2.187-.5938-.604-.4062-1.115-.9635-1.532-1.6719-.416-.7083-.75-1.5364-1-2.4843-.25-.9479-.442-1.9636-.578-3.0469v-1.75c.125-1.1563.308-2.2188.547-3.1875.24-.9792.568-1.8281.985-2.5469.427-.7187.942-1.2708 1.546-1.6562.615-.3959 1.344-.5938 2.188-.5938.917 0 1.714.1667 2.391.5.687.3334 1.255.8386 1.703 1.5156.458.6667.802 1.5157 1.031 2.5469.229 1.0313.344 2.2396.344 3.625Zm-4.375 1.125v-1.125c0-.8125-.047-1.5052-.141-2.0781-.083-.5729-.219-1.0417-.406-1.4063-.188-.3645-.432-.6302-.735-.7968-.302-.1667-.671-.25-1.109-.25-.427 0-.802.0833-1.125.25-.312.1666-.568.4114-.766.7343-.197.3125-.348.698-.453 1.1563-.104.4479-.161.9583-.172 1.5312v3.0625c.021.6771.11 1.2761.266 1.7969.167.5209.432.9375.797 1.25.365.3021.859.4531 1.484.4531.448 0 .818-.0937 1.11-.2812.302-.1875.547-.4688.734-.8438.188-.375.318-.8489.391-1.4218.083-.5729.125-1.25.125-2.0313Zm-16.219 1.9219c0-.4063-.036-.776-.109-1.1094-.073-.3333-.23-.6406-.469-.9219-.229-.2812-.568-.5625-1.016-.8437-.437-.2813-1.01-.5729-1.719-.875a41.1032 41.1032 0 0 1-2.453-1.125c-.7913-.4063-1.5048-.875-2.1403-1.4063-.6354-.5312-1.1406-1.1562-1.5156-1.875-.3646-.7291-.5469-1.5833-.5469-2.5625 0-.9583.1719-1.828.5157-2.6093.3541-.7813.8541-1.448 1.5-2 .6458-.5625 1.401-.9948 2.2651-1.2969.875-.302 1.849-.4531 2.922-.4531 1.459 0 2.719.302 3.782.9062 1.073.6042 1.901 1.4323 2.484 2.4844.594 1.052.891 2.2604.891 3.625h-4.563c0-.6458-.094-1.2135-.281-1.7031-.177-.5-.464-.8906-.86-1.1719-.395-.2813-.906-.4219-1.531-.4219-.583 0-1.067.1198-1.453.3594-.375.2292-.656.5469-.844.9531-.177.3959-.265.8438-.265 1.3438 0 .375.088.7135.265 1.0156.188.2917.443.5573.766.7969.323.2291.703.4531 1.141.6718.448.2188.937.4323 1.468.6407 1.032.4062 1.943.8541 2.735 1.3437.791.4792 1.453 1.0209 1.984 1.625a6.1121 6.1121 0 0 1 1.203 2.0156c.271.75.406 1.6042.406 2.5625 0 .948-.166 1.8125-.5 2.5938-.322.7708-.796 1.4375-1.421 2-.625.5521-1.381.9792-2.266 1.2812-.875.3021-1.854.4532-2.938.4532-1.052 0-2.046-.1459-2.984-.4375-.937-.3021-1.7655-.7552-2.4843-1.3594-.7083-.6146-1.2656-1.3906-1.6718-2.3281-.4063-.9479-.6094-2.0677-.6094-3.3594h4.5785c0 .6875.067 1.276.203 1.7656.135.4792.343.8646.625 1.1563.281.2812.625.4948 1.031.6406.417.1354.891.2031 1.422.2031.604 0 1.083-.1146 1.437-.3437.365-.2292.625-.5365.782-.9219.156-.3854.234-.8229.234-1.3125Z" fill="#000"/>
  <path d="M89.611 21.9324c0-.2917-.099-.5521-.2969-.7813-.1979-.2291-.5104-.4635-.9375-.7031-.4271-.25-.9948-.526-1.7031-.8281-.7708-.3125-1.4531-.6354-2.0469-.9688-.5937-.3333-1.0989-.7031-1.5156-1.1094-.4063-.4062-.7135-.8697-.9219-1.3906-.2083-.5208-.3125-1.1146-.3125-1.7812 0-.7188.1302-1.3802.3906-1.9844.2709-.6146.6563-1.151 1.1563-1.6094.5-.4687 1.1094-.8333 1.8281-1.0937.7292-.2709 1.5469-.4063 2.4531-.4063 1.2709 0 2.3594.224 3.2657.6719.9166.4375 1.6198 1.0521 2.1093 1.8437.4896.7917.7344 1.7136.7344 2.7657h-4.375c0-.375-.0573-.7084-.1719-1-.1145-.3021-.302-.5365-.5625-.7032-.25-.1666-.5885-.25-1.0156-.25-.3125 0-.5937.0678-.8437.2032-.2396.1354-.4323.3177-.5782.5468-.1354.2188-.2031.4792-.2031.7813 0 .2292.0469.4323.1406.6094.1042.1771.2657.3489.4844.5156.2188.1667.5104.3437.875.5312.375.1771.8334.375 1.375.5938 1.125.4167 2.0469.8646 2.7656 1.3437.7292.4792 1.2709 1.0417 1.625 1.6875.3542.6355.5313 1.4219.5313 2.3594 0 .75-.1458 1.4323-.4375 2.0469-.2813.6146-.6927 1.1458-1.2344 1.5937-.5416.448-1.1927.7917-1.9531 1.0313-.75.2396-1.5885.3594-2.5156.3594-1.3646 0-2.5157-.2709-3.4532-.8125-.9375-.5417-1.6458-1.2344-2.125-2.0782-.4791-.8541-.7187-1.7395-.7187-2.6562h4.1562c.0209.5625.125 1.0052.3125 1.3281.198.3125.4636.5313.7969.6563.3334.125.7031.1875 1.1094.1875.4062 0 .7396-.0521 1-.1563.2708-.1146.474-.2864.6094-.5156.1354-.2396.2031-.5156.2031-.8281Zm-13.7188-8.5782v13.1407h-4.375V9.5886h4.125l.25 3.7656Zm3.9844-3.8906-.0625 4.3594c-.1979-.0417-.4375-.0729-.7187-.0938-.2709-.0208-.5104-.0312-.7188-.0312-.4896 0-.9062.0781-1.25.2344-.3437.1458-.6302.3698-.8594.6718-.2187.2917-.3854.6563-.5 1.0938-.1145.4375-.1822.9323-.2031 1.4844l-.8281-.3125c0-1.1042.0833-2.1146.25-3.0313.1771-.9271.4375-1.7291.7812-2.4062.3438-.6875.7553-1.2188 1.2344-1.5938.4896-.375 1.0417-.5625 1.6563-.5625.2083 0 .4271.0209.6562.0625.2396.0313.4271.073.5625.125Zm-16 13.1406v-7.8125c0-.5104-.0625-.9166-.1875-1.2187-.1146-.3021-.2916-.5208-.5312-.6563-.2292-.1458-.5104-.2187-.8438-.2187-.375 0-.6875.0781-.9375.2344-.25.1562-.4375.3802-.5625.6718-.1146.2917-.1719.6407-.1719 1.0469h-4.3906c0-.7291.1406-1.4166.4219-2.0625.2812-.6562.6927-1.2291 1.2344-1.7187.5521-.5 1.2083-.8906 1.9687-1.1719s1.6146-.4219 2.5625-.4219c1.125 0 2.125.1927 3 .5782.875.3749 1.5677.9739 2.0781 1.7968.5105.8229.7657 1.8906.7657 3.2031v7.5313c0 .9479.0468 1.7187.1406 2.3125.1042.5937.2552 1.1042.4531 1.5312v.2657h-4.4062c-.1979-.4688-.349-1.0521-.4532-1.75a16.3068 16.3068 0 0 1-.1406-2.1407Zm.5313-6.4375.0156 2.625h-1.6094c-.4166 0-.7812.0678-1.0937.2032-.3021.1354-.5573.3281-.7657.5781-.2083.2396-.3645.5208-.4687.8437-.0938.323-.1406.6667-.1406 1.0313 0 .4062.0573.75.1718 1.0312.1146.2813.2865.4948.5157.6407.2291.1458.5.2187.8125.2187.4791 0 .8958-.0989 1.25-.2969.3541-.1979.6146-.4375.7812-.7187.1771-.2813.2344-.5417.1719-.7813l1 1.7032c-.125.3854-.2969.7864-.5156 1.2031-.2084.4167-.474.8021-.7969 1.1562-.3229.3542-.724.6459-1.2031.875-.4688.2188-1.0261.3282-1.6719.3282-.9063 0-1.7344-.2084-2.4844-.625-.75-.4167-1.3437-1-1.7812-1.75-.4271-.75-.6407-1.6407-.6407-2.6719 0-.8542.1355-1.625.4063-2.3125.2812-.6979.6979-1.2865 1.25-1.7656.5521-.4896 1.25-.8646 2.0937-1.125.8438-.2604 1.8334-.3907 2.9688-.3907h1.7344Zm-15.1719 2.75h4.5469c-.0625 1.7084-.4063 3.1511-1.0313 4.3282-.625 1.1666-1.5156 2.0521-2.6719 2.6562-1.1458.6042-2.5312.9063-4.1562.9063-1.2604 0-2.3802-.2084-3.3594-.625-.9791-.4271-1.8125-1.0521-2.5-1.875s-1.2083-1.8386-1.5625-3.0469c-.3437-1.2188-.5156-2.6198-.5156-4.2031V13.198c0-1.5833.1823-2.9844.5469-4.2031.375-1.2188.9062-2.2396 1.5937-3.0625.6979-.8334 1.5365-1.4584 2.5156-1.875.9896-.4271 2.1042-.6407 3.3438-.6407 1.6562 0 3.0417.3125 4.1562.9376 1.1146.625 1.974 1.5364 2.5782 2.7343.6146 1.1875.9843 2.6407 1.1093 4.3594h-4.5625c-.0312-1.0833-.1562-1.9323-.375-2.5469-.2083-.625-.5416-1.0625-1-1.3125-.4583-.2604-1.0937-.3906-1.9062-.3906-.6042 0-1.125.1094-1.5625.3281-.4375.2084-.7969.5469-1.0781 1.0157-.2813.4687-.4896 1.0833-.625 1.8437-.125.7604-.1875 1.6875-.1875 2.7812v3.8907c0 1.0729.0573 1.9896.1718 2.75.1146.75.2969 1.3646.5469 1.8437.25.4792.5886.8281 1.0156 1.0469.4375.2187.9896.3281 1.6563.3281.7708 0 1.3906-.1146 1.8594-.3437.4791-.2292.8333-.6407 1.0625-1.2344.2291-.5938.3593-1.4375.3906-2.5313Z" fill="#0147FF"/>
</svg>
