<svg width="669" height="659" fill="none" xmlns="http://www.w3.org/2000/svg">
  <path fill-rule="evenodd" clip-rule="evenodd" d="M19.5283 474.524C-10.6642 533.878-.1339 602.299 13.1608 659h51.4256c-14.7241-60.043-23.5065-116.567-.4917-161.808l.0014-.003c17.5062-34.423 53.0959-59.541 94.1519-75.372l.007-.003c28.825-11.125 57.935-17.644 89.028-24.607h.001c14.509-3.25 29.449-6.596 44.995-10.551l.008-.002c46.845-11.938 97.825-29.924 137.253-66.217 18.887-17.381 38.229-42.724 41.11-74.379 4.323-47.385-29.289-85.383-59.487-106.776-12.8-9.068-26.561-16.875-39.022-23.944l-.001-.001h-.001l-.007-.004c-2.276-1.291-4.508-2.558-6.684-3.803-14.665-8.394-27.445-16.1837-38.465-25.5844C301.833 64.4857 285.426 32.851 281.904 0h-50.205c3.629 47.4375 26.558 93.0316 62.829 123.981l.002.002c14.852 12.67 31.174 22.41 46.08 30.942 2.499 1.43 4.948 2.821 7.351 4.186 12.485 7.094 23.725 13.48 34.299 20.971 25.303 17.925 40.456 41.071 38.597 61.438l-.001.006c-1.263 13.882-10.416 28.538-25.174 42.12l-.002.002c-30.06 27.669-71.071 43.171-115.732 54.552-12.518 3.185-25.774 6.162-39.414 9.224-32.832 7.372-67.895 15.245-100.275 27.741-47.0538 18.144-95.4288 49.607-120.7307 99.359ZM441.28 0c3.325 29.1032 25.968 56.7499 56.759 79.4937l.007.0046c11.158 8.2475 22.459 15.5533 34.471 23.3187h.001v.001l.002.001.006.004c5.657 3.657 11.472 7.416 17.503 11.423 18.104 12.029 37.012 25.606 53.692 42.755l.003.002c49.405 50.781 69.317 123.881 63.275 191.771-6.351 71.365-51.764 114.748-89.452 150.751l-.004.004c-4.974 4.752-9.814 9.375-14.411 13.917-20.731 20.481-37.674 39.733-48.065 62.749-9.588 21.239-14.283 47.298-8.305 82.805h-50.566c-5.495-40.702.175-74.305 13.299-103.378 14.362-31.813 36.9-56.408 58.496-77.745 5.225-5.162 10.365-10.136 15.376-14.987 38.365-37.132 69.243-67.019 73.829-118.548 5-56.185-11.872-113.994-49.312-152.474l-.002-.003c-12.9-13.262-28.243-24.492-45.522-35.973-4.908-3.26-10.101-6.619-15.441-10.073l-.001-.001c-12.658-8.188-26.14-16.908-38.585-26.106l-.006-.004C432.982 93.5998 394.485 52.8976 391.095 0h50.185Z" fill="#D9DCD5"/>
</svg>
